<svg xmlns="http://www.w3.org/2000/svg" width="24" height="24"><path d="M14.859 5.981a3.96 3.96 0 012.31 1.374c.42.51.716 1.124.852 1.793a1 1 0 001.96-.396 6.079 6.079 0 00-1.269-2.669 5.956 5.956 0 00-3.47-2.064 1 1 0 00-.383 1.963zm.081-3.987a7.932 7.932 0 015.005 2.544 8.106 8.106 0 012.062 4.519 1 1 0 001.986-.234 10.107 10.107 0 00-2.571-5.634A9.93 9.93 0 0015.161.006a1 1 0 00-.221 1.987zM23 16.92a3.006 3.006 0 00-2.598-3.023c-.8-.098-1.695-.314-2.586-.646a3.045 3.045 0 00-1.344-.174 2.987 2.987 0 00-1.819.855l-.72.72a14.84 14.84 0 01-4.583-4.589l.726-.726c.322-.33.563-.726.707-1.156a2.992 2.992 0 00-.039-2.011 11.591 11.591 0 01-.644-2.595 3.02 3.02 0 00-.963-1.804A2.982 2.982 0 007.11 1H4.114a2.998 2.998 0 00-2.989 3.277c.3 3.076 1.365 6.243 3.216 9.102 1.502 2.413 3.648 4.623 6.298 6.306 2.568 1.697 5.684 2.862 9.086 3.231a2.994 2.994 0 002.406-.874c.54-.544.873-1.297.87-2.121zm-2 0v3a.997.997 0 01-.996 1.008c-3.149-.336-5.961-1.391-8.263-2.912-2.428-1.543-4.359-3.537-5.702-5.694-1.697-2.62-2.655-5.481-2.924-8.238-.024-.268.064-.526.229-.724s.403-.33.678-.355L7.11 3a.995.995 0 01.687.256c.17.154.288.366.323.608.142 1.072.408 2.117.757 3.025.081.216.08.447.01.658a1.049 1.049 0 01-.242.395L7.383 9.203a1.001 1.001 0 00-.162 1.201c1.584 2.785 3.839 4.957 6.381 6.378.397.222.882.144 1.195-.166l1.27-1.27a.984.984 0 01.598-.279c.152-.015.31.005.459.06 1.022.381 2.07.636 3.034.754a.976.976 0 01.615.355c.147.181.231.412.226.682z"/></svg>